<?xml version="1.0" encoding="utf-8"?>
<!-- Generator: Adobe Illustrator 16.0.0, SVG Export Plug-In . SVG Version: 6.00 Build 0)  -->
<!DOCTYPE svg PUBLIC "-//W3C//DTD SVG 1.1//EN" "http://www.w3.org/Graphics/SVG/1.1/DTD/svg11.dtd">
<svg version="1.1" xmlns="http://www.w3.org/2000/svg" xmlns:xlink="http://www.w3.org/1999/xlink" x="0px" y="0px" width="512px"
	 height="512px" viewBox="0 0 512 512" enable-background="new 0 0 512 512" xml:space="preserve">
<g id="Layer_1">
	<g>
		<rect x="164.249" y="112.731" fill-rule="evenodd" clip-rule="evenodd" fill="#546073" width="339.471" height="304.081"/>
		<rect x="164.249" y="128.386" fill-rule="evenodd" clip-rule="evenodd" fill="#E9E9EB" width="339.471" height="272.773"/>
		<path fill="#ABB0B7" d="M417.469,275.567c3.053-0.656,5.546-2.099,7.456-4.336c1.924-2.23,2.886-4.861,2.886-7.915
			c0-2.696-0.802-5.043-2.419-6.996c-1.604-1.982-4.228-3.476-7.908-4.548L417.469,275.567z M408.672,210.808
			c-2.39,0.846-4.256,2.23-5.647,4.169c-1.392,1.954-2.077,4.082-2.077,6.435c0,2.128,0.626,4.125,1.888,5.976
			c1.261,1.829,3.214,3.332,5.823,4.46L408.672,210.808z M408.636,274.54l0.014-25.413c-7.9-2.288-13.687-5.728-17.359-10.327
			c-3.688-4.62-5.531-10.181-5.524-16.732c0.007-6.64,2.092-12.214,6.275-16.703c4.168-4.512,9.708-7.084,16.645-7.748v-5.976
			l8.833,0.029v5.98c6.472,0.783,11.617,2.999,15.451,6.65c3.819,3.636,6.253,8.497,7.31,14.576l-15.429,1.945
			c-0.955-4.78-3.396-8.016-7.346-9.729l-0.014,23.708c9.773,2.645,16.435,6.085,19.961,10.268
			c3.542,4.205,5.298,9.583,5.298,16.144c-0.007,7.316-2.229,13.481-6.69,18.481c-4.467,4.999-10.654,8.097-18.599,9.313v11.325
			l-8.84-0.028l0.007-11.202c-6.967-0.866-12.63-3.461-17.01-7.813c-4.373-4.351-7.15-10.501-8.367-18.408l15.808-1.814
			c0.641,3.235,1.858,6.02,3.651,8.366C404.489,271.793,406.458,273.477,408.636,274.54z"/>
		<polygon fill-rule="evenodd" clip-rule="evenodd" fill="#5385C5" points="232.15,351.055 232.15,270.444 207.867,293.896 
			207.867,351.055 		"/>
		<polygon fill-rule="evenodd" clip-rule="evenodd" fill="#DB4A50" points="249.43,281.055 249.43,351.055 273.716,351.055 
			273.716,304.026 		"/>
		<polygon fill-rule="evenodd" clip-rule="evenodd" fill="#ECB018" points="290.988,280.268 290.988,351.055 315.282,351.055 
			315.282,255.905 290.988,278.985 		"/>
		<path fill-rule="evenodd" clip-rule="evenodd" fill="#499B5A" d="M185.665,273.994l46.861-46.862l0.059-0.059l0.065-0.058
			l0.062-0.059h0.003l0.065-0.059l0.066-0.051l0.065-0.051l0.069-0.043l0,0l0.073-0.051l0.069-0.044l0.073-0.044l0.069-0.044
			l0.073-0.036h0.003l0.069-0.036l0.077-0.037l0.077-0.036l0.073-0.029l0.077-0.029l0.08-0.029l0.077-0.029l0.077-0.021l0.08-0.021
			l0,0l0.08-0.022l0.077-0.015l0.08-0.021l0.081-0.015l0.08-0.007l0.08-0.015l0.084-0.008l0.08-0.007l0.08-0.008h0.08h0.084h0.08
			h0.081l0.08,0.008h0.003l0.08,0.007l0.08,0.008l0.08,0.015l0.081,0.007l0.08,0.015l0.08,0.021l0.08,0.015l0.077,0.022l0.077,0.021
			l0.08,0.021l0.077,0.029l0.077,0.029l0.08,0.029l0.077,0.029l0.072,0.036l0.073,0.037l0.076,0.036l0.073,0.036l0.073,0.044
			l0.073,0.044l0.069,0.044l0.069,0.051l0.069,0.043l0.069,0.051l0.065,0.051l0.065,0.059l0.066,0.059l0.062,0.058l0.062,0.059
			l11.938,11.938l20.595,20.595l30.121-30.121l-10.976-10.976c-3.484-3.483,1.217-4.794,4.712-4.794l15.515-0.271l19.983-0.35
			c1.814-0.044,3.024,0.307,3.779,1.02c0.714,0.75,1.064,1.961,1.013,3.776l-0.35,19.983l-0.27,15.516
			c0,3.491-1.312,8.19-4.795,4.708l-11.901-11.894l-32.503,32.503l-11.941,11.938l-0.062,0.065l-0.062,0.059l-0.065,0.058
			l-0.066,0.051l-0.065,0.051l-0.065,0.051l-0.073,0.051l-0.069,0.045l-0.069,0.05l-0.073,0.044l-0.073,0.036l-0.073,0.044
			l-0.073,0.037l-0.073,0.036l-0.077,0.029l-0.077,0.036l-0.076,0.029l-0.077,0.029l-0.077,0.021l-0.08,0.029l-0.077,0.022
			l-0.081,0.014l-0.08,0.022l-0.08,0.015l-0.077,0.015l-0.083,0.015l-0.081,0.007l-0.08,0.008l-0.08,0.007l-0.081,0.008h-0.083
			h-0.081h-0.08h-0.08l-0.084-0.008l-0.08-0.007l-0.08-0.008l-0.08-0.007l-0.081-0.015l-0.08-0.015l-0.08-0.015l-0.081-0.022
			l-0.076-0.014h-0.004l-0.076-0.022l-0.081-0.029l-0.077-0.021l0,0l-0.076-0.029l-0.077-0.029l-0.077-0.036l-0.073-0.029h-0.004
			l-0.073-0.036l-0.072-0.037l0,0l-0.073-0.044l-0.073-0.036l-0.073-0.044l-0.069-0.05l-0.069-0.045h-0.003l-0.066-0.051
			l-0.069-0.051l-0.065-0.051l-0.066-0.051l0,0l-0.065-0.058l-0.062-0.059l-0.062-0.065l-32.533-32.533l-32.537,32.533
			c-1.312,1.318-3.458,1.318-4.773,0l-11.938-11.938C184.349,277.455,184.349,275.306,185.665,273.994"/>
		<path opacity="0.25" fill-rule="evenodd" clip-rule="evenodd" fill="#272323" d="M249.43,281.055v40.754
			c8.935-3.186,17.01-6.8,24.287-10.633v-7.149L249.43,281.055z M290.988,280.268v20.458c10.283-7.07,18.289-14.277,24.294-20.472
			v-24.349l-24.294,23.08V280.268z M232.15,327.078v-56.634l-24.283,23.452v37.97C216.488,330.649,224.578,329.031,232.15,327.078z"
			/>
		<rect x="184.75" y="172.098" fill-rule="evenodd" clip-rule="evenodd" fill="#ABB0B7" width="149.237" height="7.547"/>
		<rect x="184.75" y="156.346" fill-rule="evenodd" clip-rule="evenodd" fill="#ABB0B7" width="76.814" height="7.55"/>
		<rect x="184.75" y="189.145" fill-rule="evenodd" clip-rule="evenodd" fill="#ABB0B7" width="149.237" height="7.546"/>
		<rect x="343.49" y="327.078" fill-rule="evenodd" clip-rule="evenodd" fill="#ABB0B7" width="76.821" height="7.543"/>
		<rect x="343.49" y="346.492" fill-rule="evenodd" clip-rule="evenodd" fill="#ABB0B7" width="118.66" height="7.544"/>
		<rect x="343.49" y="364.29" fill-rule="evenodd" clip-rule="evenodd" fill="#ABB0B7" width="118.66" height="7.55"/>
		<path opacity="0.1" fill-rule="evenodd" clip-rule="evenodd" fill="#272323" d="M503.72,112.735
			c0,0,19.678,286.376-339.471,304.07H503.72V112.735z"/>
		<path fill-rule="evenodd" clip-rule="evenodd" fill="#F7C2D4" d="M254.36,408.439c0,0,15.549,10.917,18.5,10.188
			c2.955-0.728,4.949-5.654-1.082-10.385c0,0,17.334,4.358,20.592,3.076c3.254-1.282,12.447-7.179,7.08-17.178
			c-5.372-10.006-38.411-20.428-38.411-20.428S243.927,399.41,254.36,408.439"/>
		<path fill-rule="evenodd" clip-rule="evenodd" fill="#DCABBB" d="M298.797,393.105c-6.953-9.671-37.758-19.393-37.758-19.393
			s-14.255,21.412-8.807,32.016c5.517-8.359,13.329-18.169,20.402-19.714C280.771,384.236,292.038,389.374,298.797,393.105"/>
		<path fill-rule="evenodd" clip-rule="evenodd" fill="#5385C5" d="M101.311,198.783c0,0,9.012,28.954-18.828,41.919
			c-27.84,12.965-42.962,16.85-52.902,48.398c-9.941,31.543-23.766,70.977-21.175,79.94c2.594,8.965,17.068,20.522,27.438,20.312
			c10.371-0.219,15.99-11.347,15.99-11.347v58.878h123.153V353.7c0,0,5.615,20.093,21.171,28.307
			c15.556,8.206,56.393,28.087,56.393,28.087l13.61-36.512c0,0-54.881-15.56-61.36-41.053
			c-6.482-25.493-18.795-70.219-28.736-77.995c-9.937-7.776-30.033-15.99-32.624-23.336c-2.595-7.346-3.028-37.161-3.028-37.161
			L101.311,198.783z"/>
		<path fill-rule="evenodd" clip-rule="evenodd" fill="#F7C2D4" d="M101.311,198.783c0,0,5.481,17.614-5.316,31.52
			c0.524,8.629,3.29,18.846,12.229,25.311c15.92,11.508,36.774-2.187,39.897-18.854c-2.343-1.895-4.041-3.753-4.679-5.561
			c-2.595-7.346-3.028-37.161-3.028-37.161L101.311,198.783z"/>
		<path opacity="0.15" fill-rule="evenodd" clip-rule="evenodd" fill="#272323" d="M101.311,198.783c0,0,4.242,13.635-2.088,26.375
			c8.979,9.248,23.394,17.447,46.435,18.693c1.159-2.251,2.004-4.642,2.463-7.091c-2.343-1.895-4.041-3.753-4.679-5.561
			c-2.595-7.346-3.028-37.161-3.028-37.161L101.311,198.783z"/>
		<path fill-rule="evenodd" clip-rule="evenodd" fill="#F7C2D4" d="M74.493,153.313c0,0-10.229-1.847-14.657,8.414
			c-4.427,10.265,0.54,30.357,23.012,27.548c0,0,4.321,33.491,36.297,35.867s44.292-25.281,44.507-37.598
			c0,0,9.832-4.537,10.265-19.229c0.43-14.688-3.024-27.004-3.024-27.004S88.787,122.082,74.493,153.313"/>
		<path fill-rule="evenodd" clip-rule="evenodd" fill="#272323" d="M68.268,153.952c0,0-22.038-41.483,0-60.93
			c22.035-19.444,34.57-5.182,46.02-2.591c11.449,2.591,31.76-19.229,48.614-14.692c16.849,4.536,32.839,16.638,26.79,42.131
			c-6.052,25.496-12.531,29.817-12.531,29.817s1.079,14.907-12.75,21.387v-26.142c0,0-32.191,12.961-48.395,7.78
			c-16.205-5.185-12.965-8.862-12.965-8.862l-11.234,30.466c0,0-9.507-2.16-9.722-12.101
			C81.879,150.279,68.268,153.952,68.268,153.952"/>
		<path opacity="0.25" fill-rule="evenodd" clip-rule="evenodd" fill="#272323" d="M63.28,284.255l-20.092,48.828
			c0,0,19.663-22.257,27.224-31.331c7.561-9.072,1.297,7.777,15.556-3.454c14.259-11.238,14.463-14.415,14.463-14.415
			s-17.148-2.923-19.867,0.584C77.848,287.979,70.845,274.744,63.28,284.255 M51.834,378.006l37.805-43.961
			c0,0-31.964,39.311-37.805,102.839V378.006z"/>
		<path fill-rule="evenodd" clip-rule="evenodd" fill="#F7C2D4" d="M63.713,305.426c0,0,7.889-17.287,10.805-18.154
			c2.915-0.859,7.127,2.383,4.322,9.511c0,0,12.746-12.527,16.204-13.074c3.458-0.539,14.368-0.109,14.798,11.238
			c0.434,11.339-22.792,37.051-22.792,37.051S59.286,318.493,63.713,305.426"/>
	</g>
</g>
<g id="Layer_2">
</g>
</svg>
