<?xml version="1.0" encoding="utf-8"?>
<!-- Generator: Adobe Illustrator 16.0.0, SVG Export Plug-In . SVG Version: 6.00 Build 0)  -->
<!DOCTYPE svg PUBLIC "-//W3C//DTD SVG 1.1//EN" "http://www.w3.org/Graphics/SVG/1.1/DTD/svg11.dtd">
<svg version="1.1" id="Layer_1" xmlns="http://www.w3.org/2000/svg" xmlns:xlink="http://www.w3.org/1999/xlink" x="0px" y="0px"
	 width="512px" height="512px" viewBox="0 0 512 512" enable-background="new 0 0 512 512" xml:space="preserve">
<g>
	<g>
		<path fill-rule="evenodd" clip-rule="evenodd" fill="#BADCBE" d="M26.847,19.177h458.288c8.21,0,14.933,6.72,14.933,14.931V288.16
			c0,8.209-6.722,14.931-14.933,14.931H26.847c-8.211,0-14.914-6.722-14.914-14.931V34.108
			C11.933,25.897,18.636,19.177,26.847,19.177z"/>
	</g>
	<g>
		<path fill="#395A7C" d="M485.134,307.01H26.847c-10.392,0-18.833-8.459-18.833-18.85V34.108c0-10.391,8.44-18.85,18.833-18.85
			h458.288c10.393,0,18.852,8.459,18.852,18.85V288.16C503.986,298.551,495.527,307.01,485.134,307.01z M26.847,23.097
			c-6.063,0-10.994,4.948-10.994,11.012V288.16c0,6.064,4.931,11.012,10.994,11.012h458.288c6.066,0,11.013-4.948,11.013-11.012
			V34.108c0-6.064-4.947-11.012-11.013-11.012H26.847z"/>
	</g>
	<g>
		<rect x="43.872" y="37.761" fill-rule="evenodd" clip-rule="evenodd" fill="#499B5A" width="424.222" height="246.745"/>
	</g>
	<g>
		<path fill="#395A7C" d="M468.094,288.424H43.872c-2.163,0-3.919-1.755-3.919-3.919V37.761c0-2.163,1.756-3.919,3.919-3.919
			h424.222c2.164,0,3.919,1.756,3.919,3.919v246.745C472.013,286.669,470.257,288.424,468.094,288.424z M47.79,280.586h416.385
			V41.68H47.79V280.586z"/>
	</g>
	<g>
		<path fill-rule="evenodd" clip-rule="evenodd" fill="#BADCBE" d="M119.061,66.1h273.841c0,24.633,20.182,44.812,44.814,44.812
			v100.426c-24.632,0-44.814,20.182-44.814,44.813H119.061c0-24.631-20.164-44.813-44.793-44.813V110.912
			C98.897,110.912,119.061,90.733,119.061,66.1z"/>
	</g>
	<g>
		<path fill="#395A7C" d="M392.902,260.069H119.061c-2.164,0-3.919-1.755-3.919-3.918c0-22.54-18.335-40.893-40.874-40.893
			c-2.164,0-3.92-1.756-3.92-3.919V110.912c0-2.164,1.756-3.919,3.92-3.919c22.539,0,40.874-18.354,40.874-40.893
			c0-2.164,1.755-3.92,3.919-3.92h273.841c2.164,0,3.919,1.756,3.919,3.92c0,22.539,18.354,40.893,40.895,40.893
			c2.164,0,3.92,1.755,3.92,3.919v100.426c0,2.164-1.756,3.919-3.92,3.919c-22.542,0-40.895,18.353-40.895,40.893
			C396.821,258.313,395.066,260.069,392.902,260.069z M122.822,252.231h266.321c1.897-23.762,20.891-42.755,44.655-44.652v-92.908
			c-23.764-1.897-42.758-20.89-44.655-44.652H122.822c-1.899,23.762-20.893,42.755-44.636,44.652v92.908
			C101.93,209.477,120.923,228.469,122.822,252.231z"/>
	</g>
	<g>
		<path fill="#395A7C" d="M261.232,195.785c3.581-0.762,6.49-2.446,8.742-5.072c2.251-2.606,3.37-5.691,3.37-9.274
			c0-3.157-0.941-5.904-2.838-8.192c-1.861-2.323-4.947-4.078-9.257-5.336L261.232,195.785z M250.928,119.922
			c-2.801,0.991-4.982,2.605-6.631,4.875c-1.614,2.289-2.43,4.788-2.43,7.537c0,2.502,0.746,4.842,2.216,7.005
			c1.471,2.147,3.778,3.903,6.829,5.232L250.928,119.922z M250.874,194.597l0.019-29.775c-9.257-2.677-16.03-6.719-20.341-12.112
			c-4.326-5.408-6.472-11.917-6.472-19.613c0.016-7.767,2.464-14.294,7.359-19.562c4.877-5.283,11.368-8.298,19.489-9.08v-6.985
			l10.357,0.018v7.004c7.589,0.922,13.62,3.527,18.106,7.803c4.468,4.255,7.324,9.948,8.565,17.078l-18.071,2.286
			c-1.118-5.603-3.991-9.416-8.6-11.419l-0.018,27.788c11.438,3.104,19.241,7.146,23.374,12.04
			c4.147,4.913,6.223,11.227,6.207,18.905c0,8.565-2.608,15.801-7.84,21.651c-5.23,5.854-12.466,9.488-21.794,10.926v13.263
			l-10.356-0.035l0.016-13.124c-8.173-1.029-14.807-4.06-19.93-9.149c-5.126-5.107-8.39-12.308-9.807-21.564l18.532-2.146
			c0.743,3.796,2.18,7.06,4.255,9.825C246.017,191.37,248.322,193.355,250.874,194.597z"/>
	</g>
	<g opacity="0.25">
		<path fill-rule="evenodd" clip-rule="evenodd" fill="#272323" d="M80.155,298.871l117.732-117.714l0.143-0.145l0.159-0.141
			l0.161-0.16l0.176-0.141l0.159-0.123l0.179-0.125l0.157-0.125h0.018l0.179-0.123l0.176-0.106l0.161-0.106l0.193-0.106l0.179-0.107
			l0.195-0.088l0.179-0.106l0.194-0.072l0.194-0.069l0.194-0.09l0.179-0.07l0.194-0.053l0.195-0.073l0.196-0.052h0.017l0.194-0.054
			l0.197-0.035l0.213-0.053l0.176-0.037l0.213-0.017l0.195-0.038l0.213-0.016l0.195-0.019l0.213-0.016h0.194l0.213-0.019
			l0.195,0.019h0.214l0.196,0.016l0,0l0.21,0.019l0.197,0.016l0.213,0.038l0.194,0.017l0.194,0.037l0.195,0.053l0.213,0.035
			l0.194,0.054l0.197,0.052l0.195,0.073l0.194,0.053l0.195,0.07l0.194,0.09l0.197,0.069l0.194,0.072l0.176,0.106l0.179,0.088
			l0.194,0.107l0.178,0.106l0.176,0.106l0.179,0.106l0.176,0.123l0.178,0.125l0.161,0.125l0.175,0.123l0.16,0.141l0.16,0.16
			l0.16,0.141l0.159,0.145l29.989,29.985l51.728,51.747l75.669-75.669l-27.556-27.558c-8.762-8.76,3.048-12.059,11.827-12.059
			l38.979-0.691l50.204-0.87c4.556-0.106,7.588,0.764,9.468,2.555c1.809,1.896,2.678,4.928,2.553,9.486l-0.868,50.204l-0.674,38.961
			c0,8.776-3.298,20.605-12.04,11.864l-29.9-29.899l-81.663,81.662l-29.986,29.989l-0.16,0.141l-0.16,0.16l-0.16,0.142l-0.16,0.144
			l-0.178,0.123l-0.16,0.125l-0.177,0.123l-0.178,0.125l-0.176,0.125l-0.179,0.088l-0.176,0.106l-0.197,0.106l-0.176,0.089
			l-0.194,0.088l-0.197,0.09l-0.175,0.087l-0.195,0.07l-0.196,0.072l-0.195,0.053l-0.194,0.072l-0.194,0.054l-0.195,0.053
			l-0.213,0.035l-0.196,0.053l-0.211,0.035l-0.197,0.018l-0.194,0.035l-0.213,0.019l-0.195,0.016l-0.195,0.019h-0.212h-0.213h-0.195
			h-0.194l-0.213-0.019l-0.194-0.016l-0.213-0.019l-0.196-0.035l-0.211-0.018l-0.197-0.035l-0.194-0.053l-0.194-0.035l-0.213-0.053
			l-0.195-0.054l-0.194-0.072l-0.179-0.053h-0.019l-0.195-0.072l-0.194-0.07l-0.178-0.087h-0.016l-0.179-0.09l-0.195-0.088
			l-0.178-0.089l-0.176-0.106l-0.195-0.106l-0.178-0.088l-0.178-0.125l-0.176-0.125l-0.161-0.123l-0.178-0.125l0,0l-0.157-0.123
			l-0.179-0.144l-0.16-0.142l-0.16-0.16l-0.16-0.141l-81.717-81.735l-81.732,81.735c-3.298,3.298-8.691,3.298-11.989,0
			l-30.004-29.989C76.873,307.577,76.873,302.168,80.155,298.871"/>
	</g>
	<g>
		<rect x="121.189" y="349.127" fill-rule="evenodd" clip-rule="evenodd" fill="#688794" width="61.021" height="143.572"/>
	</g>
	<g>
		<rect x="225.588" y="374.574" fill-rule="evenodd" clip-rule="evenodd" fill="#F190A0" width="61.021" height="118.125"/>
	</g>
	<g>
		<polygon fill-rule="evenodd" clip-rule="evenodd" fill="#D1C476" points="330.003,314.885 330.003,492.699 391.024,492.699 
			391.024,304.793 353.464,304.793 330.003,304.793 		"/>
	</g>
	<g>
		<path fill-rule="evenodd" clip-rule="evenodd" fill="#395A7C" d="M65.4,299.137l117.731-117.715l0.144-0.159l0.16-0.145
			l0.159-0.141l0.176-0.141l0.16-0.142l0.178-0.125l0.158-0.123h0.018l0.179-0.107l0.175-0.106l0.16-0.125l0.195-0.106l0.178-0.106
			l0.195-0.088l0.178-0.088l0.195-0.09l0.195-0.07l0.194-0.071l0.178-0.072l0.195-0.07l0.194-0.053l0.197-0.054h0.017l0.194-0.053
			l0.197-0.053l0.213-0.035l0.176-0.038l0.213-0.035l0.194-0.034l0.213-0.019h0.194l0.213-0.019h0.194l0.213-0.016l0.195,0.016
			h0.213l0.196,0.019h0.017h0.194l0.197,0.019l0.213,0.034l0.194,0.035l0.195,0.038l0.194,0.035l0.213,0.053l0.195,0.053
			l0.196,0.054l0.195,0.053l0.194,0.07l0.194,0.072l0.195,0.071l0.197,0.07l0.194,0.09l0.176,0.088l0.197,0.088l0.176,0.106
			l0.179,0.106l0.175,0.125l0.179,0.106l0.175,0.107l0.179,0.123l0.16,0.125l0.176,0.142l0.16,0.141l0.16,0.141l0.178,0.145
			l0.142,0.159l29.988,29.986l51.747,51.73l75.65-75.653l-27.556-27.574c-8.763-8.743,3.048-12.042,11.827-12.042l38.979-0.692
			l50.204-0.869c4.556-0.123,7.588,0.763,9.487,2.555c1.79,1.878,2.659,4.911,2.534,9.469l-0.869,50.222l-0.674,38.959
			c0,8.778-3.299,20.588-12.04,11.848l-29.9-29.9l-81.662,81.663l-29.986,29.989l-0.16,0.159l-0.16,0.161l-0.161,0.124l-0.159,0.142
			l-0.178,0.142l-0.161,0.125l-0.175,0.123l-0.179,0.125l-0.176,0.107l-0.179,0.106l-0.175,0.107l-0.197,0.106l-0.176,0.087
			l-0.195,0.088l-0.197,0.072l-0.175,0.088l-0.195,0.072l-0.197,0.069l-0.195,0.072l-0.195,0.053l-0.195,0.054l-0.193,0.053
			l-0.214,0.054l-0.197,0.035l-0.194,0.035l-0.195,0.037l-0.214,0.034l-0.213,0.019l-0.194,0.017h-0.195l-0.213,0.018h-0.194h-0.213
			l-0.195-0.018h-0.213l-0.194-0.017l-0.197-0.019l-0.213-0.034l-0.211-0.037l-0.197-0.035l-0.194-0.035l-0.195-0.054l-0.194-0.053
			l-0.197-0.054l-0.211-0.053l-0.178-0.072h-0.019l-0.176-0.069l-0.213-0.072l-0.178-0.088h-0.017l-0.178-0.072l-0.176-0.088
			l-0.196-0.087l-0.176-0.106l-0.194-0.107l-0.179-0.106l-0.16-0.107l-0.176-0.125l-0.178-0.123l-0.179-0.125l0,0l-0.157-0.142
			l-0.179-0.142l-0.159-0.124l-0.16-0.161l-0.141-0.159l-81.735-81.717l-81.732,81.717c-3.298,3.316-8.69,3.316-11.988,0
			L65.4,311.123C62.119,307.825,62.119,302.436,65.4,299.137 M276.855,253.385l65.896-65.899l-22.699-22.699
			c-14.542-14.541,3.335-23.815,16.6-23.815l89.182-1.562c5.125-0.106,10.498,0.781,14.613,4.719
			c3.652,3.847,4.54,9.202,4.45,14.327l-1.559,89.057c0,13.39-9.276,31.283-23.834,16.724l-25.006-25.022L286.396,347.177
			l-2.501,1.613l-2.873,1.135l-3.226,0.532l-2.981-0.106l-3.157-0.746l-3.048-1.489l-2.323-1.809l-77.16-77.159l-76.838,76.84
			c-5.994,5.993-15.766,5.993-21.758,0l-30.007-29.987c-5.994-5.995-5.994-15.767,0-21.743l118.903-118.778l2.661-1.739l2.854-1.135
			l3.035-0.515l3.191,0.072l3.157,0.762l2.712,1.295l2.324,1.702l0.64,0.621L276.855,253.385z"/>
	</g>
	<g>
		<path fill-rule="evenodd" clip-rule="evenodd" fill="#499B5A" d="M65.4,299.137l117.731-117.715l0.144-0.159l0.16-0.145
			l0.159-0.141l0.176-0.141l0.16-0.142l0.178-0.125l0.158-0.123h0.018l0.179-0.107l0.175-0.106l0.16-0.125l0.195-0.106l0.178-0.106
			l0.195-0.088l0.178-0.088l0.195-0.09l0.195-0.07l0.194-0.071l0.178-0.072l0.195-0.07l0.194-0.053l0.197-0.054h0.017l0.194-0.053
			l0.197-0.053l0.213-0.035l0.176-0.038l0.213-0.035l0.194-0.034l0.213-0.019h0.194l0.213-0.019h0.194l0.213-0.016l0.195,0.016
			h0.213l0.196,0.019h0.017h0.194l0.197,0.019l0.213,0.034l0.194,0.035l0.195,0.038l0.194,0.035l0.213,0.053l0.195,0.053
			l0.196,0.054l0.195,0.053l0.194,0.07l0.194,0.072l0.195,0.071l0.197,0.07l0.194,0.09l0.176,0.088l0.197,0.088l0.176,0.106
			l0.179,0.106l0.175,0.125l0.179,0.106l0.175,0.107l0.179,0.123l0.16,0.125l0.176,0.142l0.16,0.141l0.16,0.141l0.178,0.145
			l0.142,0.159l29.988,29.986l51.747,51.73l75.65-75.653l-27.556-27.574c-8.763-8.743,3.048-12.042,11.827-12.042l38.979-0.692
			l50.204-0.869c4.556-0.123,7.588,0.763,9.487,2.555c1.79,1.878,2.659,4.911,2.534,9.469l-0.869,50.222l-0.674,38.959
			c0,8.778-3.299,20.588-12.04,11.848l-29.9-29.9l-81.662,81.663l-29.986,29.989l-0.16,0.159l-0.16,0.161l-0.161,0.124l-0.159,0.142
			l-0.178,0.142l-0.161,0.125l-0.175,0.123l-0.179,0.125l-0.176,0.107l-0.179,0.106l-0.175,0.107l-0.197,0.106l-0.176,0.087
			l-0.195,0.088l-0.197,0.072l-0.175,0.088l-0.195,0.072l-0.197,0.069l-0.195,0.072l-0.195,0.053l-0.195,0.054l-0.193,0.053
			l-0.214,0.054l-0.197,0.035l-0.194,0.035l-0.195,0.037l-0.214,0.034l-0.213,0.019l-0.194,0.017h-0.195l-0.213,0.018h-0.194h-0.213
			l-0.195-0.018h-0.213l-0.194-0.017l-0.197-0.019l-0.213-0.034l-0.211-0.037l-0.197-0.035l-0.194-0.035l-0.195-0.054l-0.194-0.053
			l-0.197-0.054l-0.211-0.053l-0.178-0.072h-0.019l-0.176-0.069l-0.213-0.072l-0.178-0.088h-0.017l-0.178-0.072l-0.176-0.088
			l-0.196-0.087l-0.176-0.106l-0.194-0.107l-0.179-0.106l-0.16-0.107l-0.176-0.125l-0.178-0.123l-0.179-0.125l0,0l-0.157-0.142
			l-0.179-0.142l-0.159-0.124l-0.16-0.161l-0.141-0.159l-81.735-81.717l-81.732,81.717c-3.298,3.316-8.69,3.316-11.988,0
			L65.4,311.123C62.119,307.825,62.119,302.436,65.4,299.137"/>
	</g>
	<g opacity="0.25">
		<path fill-rule="evenodd" clip-rule="evenodd" fill="#272323" d="M225.588,374.574v44.672
			c22.449-7.998,42.737-17.078,61.021-26.725v-17.948H225.588z M330.003,314.885v51.408c25.837-17.77,45.947-35.857,61.021-51.445
			v-10.055h-37.56h-19.808h-3.653v3.653V314.885z M182.21,432.475v-83.347h-61.021v95.371
			C142.841,441.466,163.166,437.388,182.21,432.475z"/>
	</g>
	<g>
		<path fill="#395A7C" d="M326.083,492.699V314.885v-10.092v-3.919h3.92h23.46h37.56h3.919v3.919v187.906v3.935h-3.919h-61.021
			h-3.92V492.699z M333.938,314.885v173.895h53.167V308.712h-33.641h-19.526V314.885z"/>
	</g>
	<g>
		<path fill="#395A7C" d="M221.669,492.699V374.574v-3.919h3.919h61.021h3.919v3.919v118.125v3.935h-3.919h-61.021h-3.919V492.699z
			 M229.508,378.512v110.268h53.182V378.512H229.508z"/>
	</g>
	<g>
		<path fill="#395A7C" d="M186.129,349.127v143.572v3.935h-3.919h-61.021h-3.918v-3.935V349.127v-3.918h3.918h61.021h3.919V349.127z
			 M178.275,488.779V353.063h-53.167v135.717H178.275z"/>
	</g>
</g>
</svg>
